<svg width="360" height="354" viewBox="0 0 360 354" fill="none" xmlns="http://www.w3.org/2000/svg">
<ellipse cx="180" cy="177" rx="180" ry="177" fill="#FFC100"/>
<path d="M126 198C117.092 209.728 114.95 222.569 122 235.5C126.788 244.282 132.527 248.29 142 251.5C155.963 256.232 179 244 179 244C179 244 201.271 255.712 215 251.5C224.857 248.476 231.047 244.542 236 235.5C243.086 222.564 240.546 209.65 231.5 198C226.614 191.707 220.276 191.97 215 186C208.523 178.671 210.5 171.5 204 163.5C197.5 155.5 189.746 152.08 179 152C168.076 151.918 161.275 155.827 153.5 163.5C146.476 170.432 148.557 178.626 142 186C136.81 191.837 130.724 191.78 126 198Z" fill="white"/>
<ellipse cx="244.5" cy="161" rx="21.5" ry="22" fill="white"/>
<ellipse cx="206.5" cy="124" rx="21.5" ry="22" fill="white"/>
<ellipse cx="151.5" cy="124" rx="21.5" ry="22" fill="white"/>
<ellipse cx="114.5" cy="161" rx="21.5" ry="22" fill="white"/>
</svg>
